<?xml version="1.0" encoding="utf-8"?>
<!-- Svg Vector Icons : http://www.sfont.cn -->
<!DOCTYPE svg PUBLIC "-//W3C//DTD SVG 1.1//EN" "http://www.w3.org/Graphics/SVG/1.1/DTD/svg11.dtd">
<svg version="1.1" xmlns="http://www.w3.org/2000/svg" xmlns:xlink="http://www.w3.org/1999/xlink" x="0px" y="0px" viewBox="0 0 1000 1000" enable-background="new 0 0 1000 1000" xml:space="preserve">
<metadata> Svg Vector Icons : http://www.sfont.cn </metadata>
<g><path d="M963.5,916.6l-58.7,58.7c-19.6,19.6-39.1,19.6-58.7,0L503.7,603.5L171,955.8c-9.8,19.6-39.1,19.6-48.9,0L73.1,897c-9.8-19.6-9.8-39.1,0-58.7L396,495.9l-352.2-362c-19.6-19.6-19.6-39.1,0-58.7l58.7-58.7c9.8-9.8,39.1-9.8,48.9,9.8l352.2,362L836.3,36c9.8-19.6,39.1-19.6,48.9,0l48.9,58.7c9.8,19.6,9.8,39.1,0,58.7L611.3,495.9l352.2,362C973.3,877.5,973.3,897,963.5,916.6L963.5,916.6z"/></g>
</svg>