<?xml version="1.0" encoding="utf-8"?>
<!-- Svg Vector Icons : http://www.sfont.cn -->
<!DOCTYPE svg PUBLIC "-//W3C//DTD SVG 1.1//EN" "http://www.w3.org/Graphics/SVG/1.1/DTD/svg11.dtd">
<svg version="1.1" xmlns="http://www.w3.org/2000/svg" xmlns:xlink="http://www.w3.org/1999/xlink" x="0px" y="0px" viewBox="0 0 1000 1000" enable-background="new 0 0 1000 1000" xml:space="preserve">
<metadata> Svg Vector Icons : http://www.sfont.cn </metadata>
<g><path d="M985.8,37.8c-7.9-18.1-21.5-27.1-41-27.1H55.2c-19.5,0-33.1,9-41,27.1c-7.9,19-4.6,35.2,9.7,48.6l342.6,342.6v337.8c0,12.1,4.4,22.5,13.2,31.3l177.9,177.9c8.4,8.8,18.8,13.2,31.3,13.2c5.6,0,11.3-1.2,17.4-3.5c18.1-7.9,27.1-21.5,27.1-41V429.1L976.1,86.5C990.5,73,993.7,56.8,985.8,37.8z"/></g>
</svg>