<?xml version="1.0" encoding="utf-8"?>
<!-- Svg Vector Icons : http://www.sfont.cn -->
<!DOCTYPE svg PUBLIC "-//W3C//DTD SVG 1.1//EN" "http://www.w3.org/Graphics/SVG/1.1/DTD/svg11.dtd">
<svg version="1.1" xmlns="http://www.w3.org/2000/svg" xmlns:xlink="http://www.w3.org/1999/xlink" x="0px" y="0px" viewBox="0 0 1000 1000" enable-background="new 0 0 1000 1000" xml:space="preserve">
<metadata> Svg Vector Icons : http://www.sfont.cn </metadata>
<g><g transform="translate(0.000000,511.000000) scale(0.100000,-0.100000)"><path d="M6047,3597.4l-1315-1315L5991.5,1023c691-691,1267.1-1257.5,1276.7-1257.5c11.5,0,606.8,587.6,1326.4,1307.3L9900,2378.2l-1269,1269L7363.9,4914.3L6047,3597.4z"/><path d="M100,2502.6v-2048h1952.3h1952.3v2048v2048H2052.3H100V2502.6z"/><path d="M100-2646.2v-2048h1952.3h1952.3v2048v2048H2052.3H100V-2646.2z"/><path d="M5076.6-2646.2v-2048h1961.9h1961.9l-3.8,2044.2l-5.7,2042.3L7034.6-602l-1958.1,3.8V-2646.2z"/></g></g>
</svg>